<svg width="25" height="25" fill="none" xmlns="http://www.w3.org/2000/svg"><path d="M12.5 23.958V1.042h2.083l3.646 1.562 3.125 2.604 1.563 2.605 1.041 2.604.521 3.125-1.041 3.646-2.084 3.125-3.125 2.083-2.083 1.562H12.5z" fill="#F5D1C5"/><path d="M21.646 20.999a12.482 12.482 0 002.316-13.494 12.49 12.49 0 00-4.61-5.462A12.51 12.51 0 001.038 7.505a12.476 12.476 0 002.316 13.494v.043h.042A12.438 12.438 0 0012.5 25a12.45 12.45 0 009.104-3.958h.042v-.043zM1.83 12.514a10.651 10.651 0 014.337-8.589 10.676 10.676 0 0116.416 5.086 10.65 10.65 0 01-1.29 9.533 9.184 9.184 0 00-5.487-6.012A5.177 5.177 0 0017.37 6.79a5.179 5.179 0 00-4.875-3.42A5.187 5.187 0 007.62 6.79a5.173 5.173 0 001.564 5.742 9.196 9.196 0 00-5.488 6.012 10.598 10.598 0 01-1.866-6.03zm7.317-3.96a3.348 3.348 0 012.07-3.095 3.357 3.357 0 014.573 2.442 3.347 3.347 0 01-1.426 3.439 3.356 3.356 0 01-4.233-.418 3.355 3.355 0 01-.984-2.368zM5.22 20.286a7.307 7.307 0 012.371-4.69 7.321 7.321 0 0112.19 4.69 10.622 10.622 0 01-14.561 0z" fill="#9E4122"/></svg>