<svg height="91" width="91" xmlns="http://www.w3.org/2000/svg"><path d="M69.159 32.057l-3.406 9.89a.835.835 0 01-1.06.517.833.833 0 01-.516-1.061l3.478-10.096C62.081 28.632 55.66 26.96 48.86 26.59l-4.17 15.306a.837.837 0 01-1.026.584.835.835 0 01-.584-1.024l4.063-14.921c-.388-.01-.77-.039-1.159-.039-2.458 0-4.875.181-7.233.506l-1.668.279a49.676 49.676 0 00-9.097 2.463l-3.938 12.187a.835.835 0 01-1.049.539.835.835 0 01-.539-1.049l3.517-10.885c-9.68 4.17-17.074 11.263-19.863 19.865h79.74c-2.475-7.633-8.587-14.073-16.695-18.344z" fill="#DEB198"/><path d="M80.889 52.072H11.018v3.613a.818.818 0 01.523.093l8.184 4.907 8.187-4.907a.833.833 0 01.859 0l8.175 4.907 8.186-4.907a.83.83 0 01.857 0l8.183 4.907 8.184-4.907a.83.83 0 01.857 0l8.183 4.907 8.18-4.907a.826.826 0 01.855 0l.458.273v-3.979z" fill="#F69B77"/><path d="M8.257 73.064a5.33 5.33 0 005.324 5.324H78.38a5.332 5.332 0 005.328-5.324v-3.301H8.257v3.301z" fill="#FAE58F"/><path d="M71.824 62.375c-.035.021-.073.023-.11.039-.053.023-.103.045-.159.056-.054.012-.104.008-.159.008-.054 0-.104.004-.161-.008a.783.783 0 01-.154-.054c-.037-.018-.078-.02-.113-.041l-8.183-4.907-8.184 4.907c-.004.002-.01.002-.014.002-.126.074-.27.116-.415.116s-.289-.042-.415-.116c-.004 0-.01 0-.014-.002l-8.183-4.907-8.188 4.907-.016.004c-.021.012-.042.016-.066.025a.837.837 0 01-.3.077c-.018 0-.031.012-.047.012-.021 0-.042-.016-.064-.018a.826.826 0 01-.297-.081c-.021-.012-.048-.008-.07-.02l-8.173-4.907-8.188 4.907-.015.004c-.021.012-.041.014-.064.023a.81.81 0 01-.303.079c-.018 0-.031.012-.046.012-.023 0-.043-.016-.064-.018a.79.79 0 01-.298-.083c-.021-.01-.045-.006-.066-.018l-8.184-4.907-.095.057v10.57h69.871V57.997l-.885-.529-8.178 4.907z" fill="#ACD263"/><path d="M86.977 53.501H4.995a2.245 2.245 0 01-1.792-.888 2.245 2.245 0 01-.378-1.963c4.362-15.779 22.514-27.229 43.161-27.229 20.648 0 38.8 11.452 43.162 27.229a2.25 2.25 0 01-2.171 2.851zM8.15 48.997h75.671c-5.146-12.369-20.48-21.072-37.836-21.072-17.354 0-32.689 8.703-37.835 21.072zm70.233 32.491h-64.8c-4.638 0-8.41-3.772-8.41-8.41v-4.136a2.252 2.252 0 012.252-2.254h77.12a2.253 2.253 0 012.252 2.254v4.136c0 4.638-3.776 8.41-8.414 8.41zM9.677 71.194v1.884a3.911 3.911 0 003.906 3.906h64.799a3.914 3.914 0 003.91-3.906v-1.884H9.677z" fill="#434B56"/><path d="M23.256 43.941a2.253 2.253 0 01-2.145-2.946l4.071-12.604a2.258 2.258 0 012.835-1.451 2.253 2.253 0 011.451 2.836L25.397 42.38a2.252 2.252 0 01-2.141 1.561zm20.63 0c-.196 0-.396-.027-.593-.082a2.249 2.249 0 01-1.581-2.764l4.362-16.014A2.25 2.25 0 0148.84 23.5a2.25 2.25 0 011.581 2.764l-4.362 16.013a2.256 2.256 0 01-2.173 1.664zm21.08 0a2.253 2.253 0 01-2.129-2.987l3.754-10.891a2.252 2.252 0 014.258 1.468L67.096 42.42a2.258 2.258 0 01-2.13 1.521zm16.759 24.742a2.253 2.253 0 01-2.252-2.254V51.748a2.253 2.253 0 014.504 0v14.681a2.252 2.252 0 01-2.252 2.254zm-71.54 0a2.251 2.251 0 01-2.251-2.254V51.748a2.25 2.25 0 114.503 0v14.681a2.253 2.253 0 01-2.252 2.254z" fill="#434B56"/><path d="M19.725 63.925c-.396 0-.793-.103-1.156-.322l-7.454-4.469-7.456 4.471a2.256 2.256 0 01-3.09-.773 2.255 2.255 0 01.774-3.09l8.614-5.165a2.254 2.254 0 012.316 0l8.612 5.165a2.254 2.254 0 01.774 3.09 2.256 2.256 0 01-1.934 1.093z" fill="#434B56"/><path d="M19.729 63.925a2.252 2.252 0 01-1.16-4.184l8.616-5.165a2.25 2.25 0 012.316 0l8.604 5.165a2.251 2.251 0 11-2.318 3.861l-7.446-4.469-7.456 4.471a2.243 2.243 0 01-1.156.321z" fill="#434B56"/><path d="M36.948 63.925a2.252 2.252 0 01-1.16-4.184l8.616-5.165a2.252 2.252 0 012.315 0l8.612 5.165a2.252 2.252 0 11-2.317 3.863l-7.453-4.471-7.458 4.471a2.229 2.229 0 01-1.155.321z" fill="#434B56"/><path d="M54.176 63.925a2.253 2.253 0 01-1.161-4.184l8.612-5.165a2.256 2.256 0 012.317 0l8.61 5.165a2.255 2.255 0 01.774 3.09 2.254 2.254 0 01-3.092.771l-7.452-4.469-7.454 4.469c-.359.22-.759.323-1.154.323z" fill="#434B56"/><path d="M88.616 63.925a2.24 2.24 0 01-1.156-.32l-7.456-4.471-7.448 4.469a2.252 2.252 0 11-2.318-3.861l8.607-5.165a2.25 2.25 0 012.316 0l8.613 5.165a2.252 2.252 0 01-1.158 4.183z" fill="#434B56"/><path fill="#F16A6D" d="M37.916 32.866V11.85l9.541 3.632-8.03 4.696"/><path d="M37.916 35.118a2.252 2.252 0 01-2.251-2.252V11.85a2.253 2.253 0 013.053-2.104l9.541 3.631a2.253 2.253 0 01.336 4.049l-8.03 4.696c-.128.076-.26.136-.396.182v10.562a2.253 2.253 0 01-2.253 2.252zm2.252-20v2.018l2.091-1.222-2.091-.796z" fill="#434B56"/></svg>