<svg width="16" height="15" fill="none" xmlns="http://www.w3.org/2000/svg"><path d="M13.6 1.667h-.8V.833a.851.851 0 00-.234-.589A.784.784 0 0012 0a.784.784 0 00-.566.244.851.851 0 00-.234.59v.833H4.8V.833a.851.851 0 00-.234-.589A.784.784 0 004 0a.784.784 0 00-.566.244.851.851 0 00-.234.59v.833h-.8a2.35 2.35 0 00-1.697.732A2.554 2.554 0 000 4.167V12.5c0 .663.253 1.299.703 1.768A2.35 2.35 0 002.4 15h11.2c.636 0 1.247-.263 1.697-.732.45-.47.703-1.105.703-1.768V4.167c0-.663-.253-1.3-.703-1.768a2.352 2.352 0 00-1.697-.732zM2.4 3.333h.8v.834c0 .22.084.433.234.589.15.156.354.244.566.244a.784.784 0 00.566-.244.851.851 0 00.234-.59v-.833h6.4v.834c0 .22.084.433.234.589.15.156.354.244.566.244a.784.784 0 00.566-.244.851.851 0 00.234-.59v-.833h.8c.212 0 .416.088.566.244.15.157.234.369.234.59v1.666H1.6V4.167c0-.221.084-.433.234-.59a.784.784 0 01.566-.244zm11.2 10H2.4a.784.784 0 01-.566-.244.851.851 0 01-.234-.589v-5h12.8v5a.852.852 0 01-.234.59.784.784 0 01-.566.243z" fill="#343434"/></svg>