<svg width="24" height="22" fill="none" xmlns="http://www.w3.org/2000/svg"><path d="M19.7 3.222h-1.1v-1.11a1.12 1.12 0 00-.322-.787 1.094 1.094 0 00-1.556 0 1.117 1.117 0 00-.322.786v1.111H7.6v-1.11a1.12 1.12 0 00-.322-.787 1.094 1.094 0 00-1.556 0 1.117 1.117 0 00-.322.786v1.111H4.3c-.875 0-1.715.351-2.333.977A3.35 3.35 0 001 6.556v11.11c0 .885.348 1.733.967 2.358A3.283 3.283 0 004.3 21h15.4c.875 0 1.715-.351 2.334-.976A3.35 3.35 0 0023 17.667V6.556a3.35 3.35 0 00-.966-2.357 3.284 3.284 0 00-2.334-.977zM4.3 5.444h1.1v1.112c0 .294.116.577.322.785a1.094 1.094 0 001.556 0c.206-.208.322-.49.322-.785V5.444h8.8v1.112c0 .294.116.577.322.785a1.095 1.095 0 001.556 0c.206-.208.322-.49.322-.785V5.444h1.1c.292 0 .572.118.778.326.206.208.322.49.322.786v2.222H3.2V6.556c0-.295.116-.578.322-.786.206-.208.486-.326.778-.326zm15.4 13.334H4.3c-.292 0-.572-.117-.778-.326a1.116 1.116 0 01-.322-.785V11h17.6v6.667c0 .294-.116.577-.322.785a1.094 1.094 0 01-.778.326z" fill="#929292" stroke="#FAFAFA" stroke-width=".2"/></svg>