<svg width="25" height="18" fill="none" xmlns="http://www.w3.org/2000/svg"><path d="M23.106 18H1.241a1.237 1.237 0 01-1.237-1.237V1.237C.004.554.558 0 1.24 0h21.868c.682 0 1.237.554 1.237 1.237v15.526A1.24 1.24 0 0123.106 18zM1.607 16.394h21.13V1.606H1.607v14.788z" fill="#929292"/><path d="M24.344 8.505H0V3.269h24.342v5.236h.002zM1.606 6.899h21.13V4.872H1.606V6.9zm17.084 8.317c-.53 0-1.044-.15-1.488-.426a2.82 2.82 0 01-4.307-2.393 2.825 2.825 0 012.821-2.822c.53 0 1.044.15 1.489.426a2.814 2.814 0 011.488-.426 2.825 2.825 0 012.821 2.822 2.829 2.829 0 01-2.824 2.819zm-1.488-2.645l.591.645a1.2 1.2 0 00.895.394 1.216 1.216 0 10-.894-2.037l-.592.645-.592-.646a1.218 1.218 0 00-2.112.822 1.216 1.216 0 002.112.822l.592-.645zm-7.89-.977H3.637V13.2h5.675v-1.606z" fill="#929292"/></svg>