<svg width="22" height="24" fill="none" xmlns="http://www.w3.org/2000/svg"><path d="M20.5 4H6l-.5.5L8 12h9l3.5-8z" fill="#F5D1C5"/><path d="M3.275 0H.992a.992.992 0 000 1.985h2.283l3.262 8.973a2.978 2.978 0 00.41 5.912h11.908a.993.993 0 000-1.984H6.947a.992.992 0 110-1.985h8.735a4.157 4.157 0 003.875-2.684l2.213-5.9a.992.992 0 00-.93-1.34H5.954c-.066 0-.133.007-.198.02l-.615-1.69A1.985 1.985 0 003.275 0zM19.4 4.962l-1.702 4.557a2.161 2.161 0 01-2.017 1.397H8.634L6.468 4.962H19.4zM4.962 20.84a2.977 2.977 0 105.954 0 2.977 2.977 0 00-5.954 0zm3.97 0a.992.992 0 11-1.986 0 .992.992 0 011.985 0zm7.94-2.977a2.977 2.977 0 100 5.954 2.977 2.977 0 000-5.954zm0 3.97a.993.993 0 110-1.986.993.993 0 010 1.985z" fill="#9E4122"/></svg>