<svg xmlns="http://www.w3.org/2000/svg" viewBox="0 0 512 512"><path d="M484.856 146.805c26.511-31.902 26.752-81.216 26.746-83.54l-29.947.064c.027 12.697-3.971 47.424-21.693 66.442-28.37-13.485-64.809-15.241-96.351-3.307-67.077 25.387-93.382 135.544-170.238 159.929-58.242 18.484-122.104 2.529-157.76 7.334-88.653 11.928-6.672 155.017 189.046 155.009 264.583-.002 332.693-231.413 260.197-301.931zM35.897 343.801c-4.386-6.901-6.21-13.024-5.137-17.239 1.594-6.277 47.925-2.813 50.589-2.656 130.737 7.665 164.595-16.239 229.031-104.955 11.266-15.509 22.193-30.546 33.573-42.481 7.699 19.101 7.624 25.292 9.737 42.653 15.592-2.921 36.413-7.288 56.031-5.933 6.27 23.122 5.955 35.807 6.768 57.277 18.878-6.471 38.181-14.034 60.435-13.411-43.315 194.397-368.956 200.171-441.027 86.745zm445.298-116.52c-13.254-.886-26.83 1.097-37.276 3.371-2.892-19.838-8.21-35.08-8.5-35.899-3.442-9.755-.661-7.272-10.744-9.605-14.408-3.335-33.335-2.107-46.299-.568-2.707-9.746-6.547-19.449-10.095-27.437 31.77-16.497 119.011-17.599 112.914 70.138z"/></svg>