<svg width="33" height="33" fill="none" xmlns="http://www.w3.org/2000/svg"><ellipse cx="16.098" cy="16.5" rx="16.098" ry="16.5" fill="#F2F2F2"/><path d="M7.56 12.045c.168-.495.63-.827 1.149-.827h4.249v-1.063c0-.747.607-1.355 1.354-1.355h10.036c.747 0 1.355.608 1.355 1.354v9.807c0 .745-.608 1.351-1.355 1.351h-1.122a2.462 2.462 0 01-2.439 2.155 2.462 2.462 0 01-2.439-2.155c-.633 0 2.292 0-6.187.004a2.462 2.462 0 01-2.438 2.15 2.462 2.462 0 01-2.439-2.15h-.212a1.207 1.207 0 01-1.206-1.206v-2.737c0-.318-.036-.027 1.694-5.328zm17.523 7.916v-9.806a.735.735 0 00-.735-.735H14.312a.735.735 0 00-.734.735v10.537h4.771a2.462 2.462 0 012.438-2.145c1.25 0 2.283.937 2.438 2.145h1.123a.734.734 0 00.735-.73zm-4.296 2.886c1.015 0 1.84-.826 1.84-1.84 0-1.015-.825-1.84-1.84-1.84-1.015 0-1.84.825-1.84 1.84 0 1.014.825 1.84 1.84 1.84zm-11.064 0c1.014 0 1.84-.826 1.84-1.84 0-1.015-.826-1.84-1.84-1.84-1.015 0-1.84.825-1.84 1.84 0 1.014.825 1.84 1.84 1.84zM6.486 20.11c0 .323.263.586.586.586h.213a2.462 2.462 0 012.438-2.15c1.25 0 2.284.94 2.438 2.15h.797v-8.858h-4.25a.594.594 0 00-.56.403c-1.751 5.342-1.662 4.98-1.662 5.132v2.737z" fill="#6A6A6A" stroke="#6A6A6A" stroke-width=".3"/><path d="M8.882 12.98a.31.31 0 01.295-.214h2.54a.31.31 0 01.31.31v3.047a.31.31 0 01-.31.31H8.173a.31.31 0 01-.295-.407l1.004-3.047zm2.525 2.833v-2.427H9.401l-.8 2.427h2.806zm3.697 1.551a.31.31 0 110-.62h.21a4.033 4.033 0 013.706-3.706v-.447a.31.31 0 11.62 0v.447a4.032 4.032 0 013.706 3.706h.21a.31.31 0 110 .62h-8.452zm4.226-3.722a3.416 3.416 0 00-3.397 3.102h6.794a3.416 3.416 0 00-3.397-3.102z" fill="#6A6A6A" stroke="#6A6A6A" stroke-width=".3"/></svg>