<svg width="42" height="31" fill="none" xmlns="http://www.w3.org/2000/svg"><path d="M4.35 7.454a2.466 2.466 0 012.333-1.679h8.628V3.617a2.753 2.753 0 012.75-2.75h20.376a2.753 2.753 0 012.75 2.75v19.91a2.75 2.75 0 01-2.75 2.744h-2.279a4.999 4.999 0 01-4.951 4.373 4.999 4.999 0 01-4.952-4.373l-12.562.006a4.999 4.999 0 01-4.95 4.367 4.999 4.999 0 01-4.951-4.367h-.43a2.45 2.45 0 01-2.45-2.448v-5.556c0-.645-.072-.056 3.439-10.819zm35.578 16.073V3.617c0-.823-.67-1.492-1.491-1.492H18.06c-.823 0-1.492.67-1.492 1.492v21.395h9.688a4.999 4.999 0 014.95-4.357 4.999 4.999 0 014.949 4.357h2.28a1.49 1.49 0 001.492-1.485zm-8.721 5.859a3.74 3.74 0 003.735-3.736 3.74 3.74 0 00-3.735-3.736 3.74 3.74 0 00-3.737 3.736 3.74 3.74 0 003.737 3.736zm-22.464 0a3.74 3.74 0 003.735-3.736 3.74 3.74 0 00-3.735-3.736 3.74 3.74 0 00-3.737 3.736 3.74 3.74 0 003.737 3.736zM2.17 23.829c0 .656.534 1.19 1.19 1.19h.431a4.999 4.999 0 014.95-4.364 4.999 4.999 0 014.95 4.363h1.619V7.034H6.683c-.515 0-.973.331-1.138.82C1.99 18.698 2.17 17.963 2.17 18.272v5.556z" fill="#9E4122" stroke="#9E4122" stroke-width=".6"/><path d="M7.036 9.352a.63.63 0 01.598-.433h5.157a.63.63 0 01.63.63v6.185a.63.63 0 01-.63.63H5.596a.63.63 0 01-.598-.827l2.038-6.185zm5.126 5.753v-4.927H8.089l-1.623 4.927h5.696zm7.508 3.149a.63.63 0 110-1.259h.427a8.187 8.187 0 017.523-7.524v-.907a.63.63 0 111.259 0v.907a8.187 8.187 0 017.523 7.524h.428a.63.63 0 110 1.259H19.67zm8.58-7.556a6.935 6.935 0 00-6.898 6.297h13.795c-.319-3.525-3.29-6.297-6.897-6.297z" fill="#9E4122" stroke="#9E4122" stroke-width=".6"/></svg>