<svg width="27" height="27" fill="none" xmlns="http://www.w3.org/2000/svg"><path d="M13.98 24.917V2h-2.083L8.251 3.563 5.126 6.167 3.564 8.77l-1.042 2.604-.52 3.125 1.041 3.646 2.083 3.125 3.125 2.083 2.084 1.563h3.645z" fill="#F5D1C5"/><path d="M13.54 1c6.862.023 12.5 5.665 12.46 12.48A12.536 12.536 0 0113.45 26C6.583 26.012.968 20.327 1 13.39A12.5 12.5 0 0113.54 1zm.058 2.365A10.105 10.105 0 003.395 13.477C3.333 19 7.915 23.61 13.453 23.622a10.119 10.119 0 0010.142-10.175c-.033-5.537-4.533-10.074-9.997-10.082z" fill="#9E4122" stroke="#fff" stroke-width=".5"/><path d="M12.974 20.585h-.92a.215.215 0 00-.053-.033 1.19 1.19 0 01-.71-1.425c.418-1.722.848-3.442 1.265-5.165.058-.238.1-.48.125-.725a.166.166 0 00-.133-.21.168.168 0 00-.092.01 1.333 1.333 0 00-.287.098c-.21.087-.413.19-.623.272a.352.352 0 01-.452-.09v-.337a3.8 3.8 0 01.482-.555c.63-.5 1.278-.973 1.928-1.448.139-.092.288-.167.445-.225.205-.09.433-.113.652-.067a1.265 1.265 0 011.043 1.632c-.409 1.667-.817 3.325-1.225 4.975-.066.27-.114.544-.145.82a.16.16 0 00.232.18c.155-.047.3-.122.45-.182.15-.06.368-.153.555-.215a.264.264 0 01.303.087.278.278 0 01.03.325 1.212 1.212 0 01-.173.268c-.155.17-.322.329-.5.475a14.098 14.098 0 01-2.197 1.535zm1.188-10.68a1.75 1.75 0 111.735-1.75 1.737 1.737 0 01-1.735 1.75z" fill="#9E4122" stroke="#fff" stroke-width=".5"/></svg>