<svg width="17" height="17" fill="none" xmlns="http://www.w3.org/2000/svg"><path d="M8.497 6.224a1.18 1.18 0 100-2.361 1.18 1.18 0 000 2.36zm.983 2.054v3.891a.982.982 0 11-1.964 0V8.278a.982.982 0 011.964 0z" fill="#929292"/><path d="M8.5 0a8.5 8.5 0 100 17 8.5 8.5 0 000-17zm4.942 13.442a6.988 6.988 0 11-9.884-9.884 6.989 6.989 0 119.884 9.884z" fill="#929292"/><path d="M8.5 0a8.5 8.5 0 100 17 8.5 8.5 0 000-17zm4.942 13.442a6.988 6.988 0 11-9.884-9.884 6.989 6.989 0 119.884 9.884z" fill="#929292"/></svg>