<svg width="33" height="33" fill="none" xmlns="http://www.w3.org/2000/svg"><ellipse cx="16.133" cy="16.5" rx="16.133" ry="16.5" fill="#F2F2F2"/><path d="M16.227 20.717a.458.458 0 01-.369-.185c-.153-.207-3.756-5.097-3.756-7.607A4.13 4.13 0 0116.227 8.8a4.13 4.13 0 014.125 4.125c0 2.51-3.604 7.4-3.757 7.607a.458.458 0 01-.368.185zm0-11a3.212 3.212 0 00-3.209 3.208c0 1.639 2.06 4.912 3.209 6.549 1.149-1.637 3.208-4.912 3.208-6.549 0-1.77-1.44-3.208-3.208-3.208z" fill="#6A6A6A"/><path d="M16.228 14.758a1.835 1.835 0 01-1.834-1.833c0-1.011.823-1.833 1.834-1.833 1.01 0 1.833.822 1.833 1.833a1.835 1.835 0 01-1.833 1.833zm0-2.75a.918.918 0 000 1.834.918.918 0 000-1.834zm0 11.459c-2.889 0-5.959-.895-5.959-2.553 0-.823.773-1.536 2.176-2.007a.459.459 0 01.292.87c-1.145.383-1.55.852-1.55 1.136 0 .668 1.963 1.637 5.04 1.637 3.079 0 5.043-.97 5.043-1.637 0-.284-.407-.753-1.552-1.137a.459.459 0 01.293-.87c1.402.473 2.175 1.185 2.175 2.008 0 1.658-3.07 2.553-5.958 2.553z" fill="#6A6A6A"/></svg>