<svg width="26" height="24" fill="none" xmlns="http://www.w3.org/2000/svg"><path d="M8.497 8.447H3.045a.487.487 0 00-.486.487v1.557a.486.486 0 00.486.487h5.452a.487.487 0 00.486-.487V8.934a.487.487 0 00-.486-.487zm-.487 1.558H3.532V9.42H8.01v.585zm-1.85 1.898H3.093a.487.487 0 000 .973H6.16a.487.487 0 100-.973z" fill="#fff" stroke="#fff" stroke-width=".4"/><path d="M25.353 14.38a73.972 73.972 0 00-.164-2.809.487.487 0 00-.348-.427l-2.62-.77V2.266A1.267 1.267 0 0020.956 1H2.266A1.267 1.267 0 001 2.265v12.46a1.267 1.267 0 001.265 1.266h11.148c.007 1.38.129 1.836.245 2.067.087.174.317.636 2.94 2.82 1.263 1.052 2.489 2.01 2.5 2.019a.487.487 0 00.6 0c.012-.01 1.238-.967 2.501-2.02 2.622-2.183 2.853-2.645 2.94-2.819.153-.305.315-.999.214-3.677zM1.973 5.089h19.275v1.363H1.973V5.09zm.292-3.115h18.69a.292.292 0 01.293.292v1.85H1.973v-1.85a.292.292 0 01.292-.292zm-.292 12.753V7.425h19.275v2.664l-1.713-.503a.486.486 0 00-.274 0l-5.305 1.558a.486.486 0 00-.348.427c-.001.014-.11 1.367-.165 2.81-.008.226-.015.438-.02.637H2.265a.292.292 0 01-.292-.292zm22.295 2.897c-.231.463-2.604 2.489-4.87 4.272-2.265-1.783-4.638-3.809-4.87-4.272-.03-.06-.16-.421-.14-2.111v-.012c.004-.313.013-.67.028-1.08.038-.997.102-1.951.137-2.437l4.845-1.423 4.846 1.423c.035.485.099 1.438.136 2.434.1 2.64-.075 3.134-.112 3.206z" fill="#fff" stroke="#fff" stroke-width=".4"/><path d="M22.994 12.63l-3.457-1.015a.486.486 0 00-.274 0l-3.458 1.015a.487.487 0 00-.348.438c-.084 1.41-.142 3.192-.054 3.97a.487.487 0 00.127.278c.594.637 2.23 2.014 3.564 3.09a.487.487 0 00.611 0c1.334-1.076 2.97-2.453 3.564-3.09a.486.486 0 00.128-.277c.087-.779.03-2.562-.054-3.97a.486.486 0 00-.349-.439zm-.55 4.14c-.508.51-1.655 1.502-3.044 2.631-1.389-1.13-2.536-2.12-3.044-2.631-.044-.624-.024-1.865.053-3.302l2.99-.879 2.992.878c.077 1.438.097 2.678.053 3.303z" fill="#fff" stroke="#fff" stroke-width=".4"/><path d="M21.259 13.956a.486.486 0 00-.684.076l-1.279 1.599-.797-.531a.487.487 0 00-.54.81l1.168.778a.486.486 0 00.65-.1l1.558-1.948a.487.487 0 00-.076-.684z" fill="#fff" stroke="#fff" stroke-width=".4"/></svg>