<svg width="37" height="32" fill="none" xmlns="http://www.w3.org/2000/svg"><path d="M36 16c0 8.27-6.62 15-14.761 15-3.006 0-5.897-.923-8.37-2.616-.684-.5-.874-1.423-.38-2.153.495-.693 1.407-.885 2.13-.385a11.646 11.646 0 006.62 2.077c6.467 0 11.717-5.346 11.717-11.923S27.706 4.077 21.24 4.077c-6.315 0-11.489 5.115-11.717 11.5l3.538-3.616a1.505 1.505 0 012.169 0 1.544 1.544 0 010 2.192l-5.821 5.885a1.494 1.494 0 01-1.066.462c-.418 0-.798-.154-1.065-.462l-5.82-5.923a1.544 1.544 0 010-2.192 1.505 1.505 0 012.168 0l2.892 2.961C7.049 7.154 13.44 1 21.239 1 29.38 1 36 7.73 36 16zM21.163 7.269c-.837 0-1.522.692-1.522 1.538V16c0 .423.19.807.495 1.076l3.272 3.309c.304.307.684.461 1.102.461.38 0 .8-.154 1.066-.461.609-.616.57-1.578-.038-2.193l-2.853-2.846V8.807c0-.846-.685-1.538-1.522-1.538z" fill="#9E4122" stroke="#fff"/></svg>