<svg width="30" height="35" fill="none" xmlns="http://www.w3.org/2000/svg"><path d="M13.102 17.5h-.55v-2.2h-1.1v2.2h-.55v-2.2h-1.1v4.4a2.195 2.195 0 001.025 1.853l-.475 5.247a.552.552 0 00.55.6h2.2a.55.55 0 00.55-.6l-.473-5.247a2.195 2.195 0 001.023-1.853v-4.4h-1.1v2.2zm0 2.2a1.1 1.1 0 11-2.2 0v-1.1h2.2v1.1zm-.601 6.6h-.997l.398-4.41c.034 0 .066.01.1.01.035 0 .067-.009.1-.01l.399 4.41zm7.751-11a3.855 3.855 0 00-3.85 3.85v2.2a.55.55 0 00.377.521l1.228.41-.501 4.51a.551.551 0 00.546.609h2.2a.55.55 0 00.55-.55v-11a.55.55 0 00-.55-.55zm-1.585 11l.407-3.663.628.209V26.3h-1.035zm1.035-4.614l-2.2-.733V19.15a2.755 2.755 0 012.2-2.695v5.231z" fill="#9E4122" stroke="#9E4122" stroke-width=".3"/><path d="M15.302 10.9a9.9 9.9 0 109.9 9.9 9.912 9.912 0 00-9.9-9.9zm0 18.7a8.8 8.8 0 118.8-8.8 8.81 8.81 0 01-8.8 8.8z" fill="#9E4122" stroke="#9E4122" stroke-width=".3"/><path d="M27.957 28.434l1.645-19.14a.548.548 0 00-.55-.594h-4.4V4.85a.568.568 0 00-.16-.39l-3.3-3.3a.568.568 0 00-.39-.16h-11a.568.568 0 00-.39.16l-3.3 3.3a.568.568 0 00-.16.39V8.7h-4.4a.547.547 0 00-.55.594l1.645 19.14-1.617 4.84a.55.55 0 00.077.495.54.54 0 00.445.231h27.5a.54.54 0 00.445-.231.55.55 0 00.078-.495l-1.617-4.84zM10.027 2.1h10.55l2.2 2.2H7.826l2.2-2.2zm13.525 3.3v3.3h-2.2V5.4h2.2zm-3.3 0v3.3h-9.9V5.4h9.9zm-13.2 0h2.2v3.3h-2.2V5.4zM2.316 32.9l1.409-4.224a.605.605 0 00.027-.22L2.152 9.8h26.3l-1.6 18.656a.605.605 0 00.027.22l1.409 4.224H2.317z" fill="#9E4122" stroke="#9E4122" stroke-width=".3"/></svg>