<svg width="20" height="15" fill="none" xmlns="http://www.w3.org/2000/svg"><path d="M13.415 3.695c1.318 1.318 1.804 3.162 1.46 4.884l-.284-.283a1.077 1.077 0 00-1.5 0 1.077 1.077 0 000 1.5l2.189 2.168a1.077 1.077 0 001.5 0l2.168-2.169a1.077 1.077 0 000-1.5 1.077 1.077 0 00-1.5 0l-.405.406c.365-2.29-.324-4.742-2.108-6.505C12.808.068 9.727-.5 7.093.433a1.057 1.057 0 10.73 1.986c1.884-.649 4.093-.223 5.592 1.276zM12.18 14.558a1.057 1.057 0 00.384-1.743 1.083 1.083 0 00-1.114-.243 5.425 5.425 0 01-5.614-1.257C4.52 9.998 4.033 8.154 4.377 6.431l.284.284a1.077 1.077 0 001.5 0 1.077 1.077 0 000-1.5L3.972 3.048a1.077 1.077 0 00-1.5 0L.304 5.216a1.077 1.077 0 000 1.5 1.077 1.077 0 001.5 0l.405-.406c-.365 2.29.324 4.742 2.107 6.505a7.552 7.552 0 007.863 1.743z" fill="#9E4122"/></svg>