<svg width="30" height="23" fill="none" xmlns="http://www.w3.org/2000/svg"><path d="M21.379 0H2.319A2.32 2.32 0 000 2.318v12.364A2.32 2.32 0 002.318 17h19.06a2.32 2.32 0 002.319-2.318V2.318A2.32 2.32 0 0021.379 0zm.773 14.682a.774.774 0 01-.773.773H2.319a.774.774 0 01-.774-.773V7.727h20.607v6.955zm0-8.5H1.545V4.636h20.606v1.546zm0-3.091H1.545v-.773c0-.426.347-.773.773-.773h19.06c.427 0 .774.347.774.773v.773z" fill="#9E4122"/><path d="M10.044 9.273H3.863a.773.773 0 00-.773.772v3.091c0 .427.346.773.773.773h6.181a.773.773 0 00.773-.773v-3.09a.773.773 0 00-.773-.773zm-.772 3.09H4.635v-1.545h4.637v1.546z" fill="#9E4122"/><circle cx="22.501" cy="15.5" r="5.958" fill="#FFF6F3"/><path d="M22.6 8.9v0h-.1a6.6 6.6 0 10.1 0zm-.1 11.917a5.317 5.317 0 110-10.634 5.317 5.317 0 010 10.634z" fill="#9E4122" stroke="#9E4122" stroke-width=".2"/><path d="M23.044 12v-.15H21.85v3.893l.045.045 2.365 2.32.105.102.105-.103.635-.621.11-.107-.11-.108-2.06-2.017V12z" fill="#9E4122" stroke="#9E4122" stroke-width=".3"/></svg>