<svg width="21" height="16" fill="none" xmlns="http://www.w3.org/2000/svg"><path d="M20.617.12a.813.813 0 00-.786-.036l-6.1 3.022L7.63.084 7.61.077a.807.807 0 00-.12-.043L7.443.02a.775.775 0 00-.35 0L7.05.034a.81.81 0 00-.12.043l-.021.007-6.462 3.2A.805.805 0 000 4v11.2a.794.794 0 00.383.68.814.814 0 00.786.036l6.1-3.022 6.1 3.022.021.007c.04.018.08.032.12.043l.046.014a.775.775 0 00.35 0c.015-.003.03-.01.045-.014a.814.814 0 00.12-.043l.021-.007 6.462-3.2A.805.805 0 0021 12V.8a.794.794 0 00-.383-.68zM6.462 11.505l-4.847 2.4v-9.41l4.847-2.4v9.41zm6.461 2.4l-4.846-2.4v-9.41l4.846 2.4v9.41zm6.462-2.4l-4.847 2.4v-9.41l4.847-2.4v9.41z" fill="#9E4122"/></svg>