<svg xmlns="http://www.w3.org/2000/svg" viewBox="0 0 511.943 511.943"><path d="M485.474 12.039c-1.44-5.632-5.888-9.984-11.488-11.424-5.6-1.472-11.648.256-15.648 4.448-.256.288-27.392 27.744-118.048 62.496-31.776 12.096-54.912 35.168-65.088 64.864-8.352 24.256-11.584 64.32 20.32 117.12.352.608 1.152.8 1.568 1.344-21.664 49.536-35.392 100.448-43.68 142.976C181.122 69.671 44.866 4.263 38.594 1.415c-8.064-3.616-17.536-.064-21.216 7.968-3.616 8.032-.064 17.536 7.968 21.152 1.536.704 153.856 74.016 215.168 467.872 1.216 7.808 7.968 13.536 15.808 13.536.32 0 .608 0 .896-.032 8.224-.48 14.752-7.072 15.104-15.264.064-1.632 6.016-123.68 54.944-234.88 6.56.992 13.824 1.792 22.304 1.792 36.352 0 87.36-13.152 127.744-74.56.288-.48.576-.928.832-1.44 34.56-66.88 8.448-171.136 7.328-175.52zm-35.392 160.096c-36 54.24-80.544 61.472-108.384 59.552 14.688-27.808 32.384-54.112 53.856-76.672 6.08-6.4 5.856-16.544-.576-22.624-6.368-6.016-16.512-5.856-22.624.576-23.392 24.576-42.336 53.024-58.208 82.752-12.512-26.816-15.904-51.84-8.672-72.896 7.072-20.608 23.488-36.704 46.24-45.44 55.104-21.12 88.448-39.84 107.616-52.704 5.184 32.256 10.208 89.024-9.248 127.456z"/></svg>